<?xml version="1.0" encoding="UTF-8"?>
<svg xmlns="http://www.w3.org/2000/svg" xmlns:xlink="http://www.w3.org/1999/xlink" width="30px" height="30px" viewBox="0 0 30 30" version="1.1">
<g id="surface1">
<path style=" stroke:none;fill-rule:nonzero;fill:rgb(0%,0%,0%);fill-opacity:1;" d="M 6.59375 20.199219 C 10.238281 20.199219 13.191406 17.246094 13.191406 13.605469 C 13.191406 9.960938 10.238281 7.007812 6.59375 7.007812 C 2.953125 7.007812 0 9.960938 0 13.605469 C 0 17.246094 2.953125 20.199219 6.59375 20.199219 Z M 3.457031 18.765625 C 3.332031 18.765625 3.230469 18.664062 3.230469 18.539062 C 3.230469 18.414062 3.332031 18.3125 3.457031 18.3125 C 3.582031 18.3125 3.683594 18.414062 3.683594 18.539062 C 3.683594 18.664062 3.582031 18.765625 3.457031 18.765625 Z M 2.289062 15.929688 L 5.726562 14.539062 L 5.804688 18.546875 C 4.257812 18.289062 2.960938 17.292969 2.289062 15.929688 Z M 6.449219 14.433594 C 5.941406 14.433594 5.53125 14.023438 5.53125 13.519531 C 5.53125 13.011719 5.941406 12.601562 6.449219 12.601562 C 6.953125 12.601562 7.363281 13.011719 7.363281 13.519531 C 7.363281 14.023438 6.953125 14.433594 6.449219 14.433594 Z M 9.890625 18.3125 C 9.765625 18.3125 9.664062 18.210938 9.664062 18.085938 C 9.664062 17.957031 9.765625 17.859375 9.890625 17.859375 C 10.019531 17.859375 10.121094 17.957031 10.121094 18.085938 C 10.121094 18.210938 10.019531 18.3125 9.890625 18.3125 Z M 7.429688 18.539062 L 7.347656 14.417969 L 10.933594 15.871094 C 10.277344 17.25 8.980469 18.265625 7.429688 18.539062 Z M 11.789062 11.804688 C 11.914062 11.804688 12.015625 11.90625 12.015625 12.03125 C 12.015625 12.15625 11.914062 12.261719 11.789062 12.261719 C 11.664062 12.261719 11.5625 12.15625 11.5625 12.03125 C 11.5625 11.90625 11.664062 11.804688 11.789062 11.804688 Z M 11.394531 13.8125 C 11.394531 13.976562 11.386719 14.136719 11.371094 14.296875 L 7.664062 12.796875 L 9.777344 10.222656 C 10.769531 11.101562 11.394531 12.382812 11.394531 13.8125 Z M 6.304688 7.765625 C 6.429688 7.765625 6.53125 7.867188 6.53125 7.992188 C 6.53125 8.117188 6.429688 8.21875 6.304688 8.21875 C 6.179688 8.21875 6.078125 8.117188 6.078125 7.992188 C 6.078125 7.867188 6.179688 7.765625 6.304688 7.765625 Z M 6.59375 9.015625 C 7.226562 9.015625 7.832031 9.136719 8.382812 9.359375 L 6.292969 11.910156 L 4.226562 9.640625 C 4.925781 9.242188 5.734375 9.015625 6.59375 9.015625 Z M 1.035156 12.488281 C 0.910156 12.488281 0.808594 12.386719 0.808594 12.257812 C 0.808594 12.132812 0.910156 12.03125 1.035156 12.03125 C 1.160156 12.03125 1.261719 12.132812 1.261719 12.257812 C 1.261719 12.382812 1.160156 12.488281 1.035156 12.488281 Z M 1.796875 13.8125 C 1.796875 12.613281 2.238281 11.515625 2.96875 10.671875 L 5.117188 13.03125 L 1.828125 14.363281 C 1.808594 14.183594 1.796875 14 1.796875 13.8125 Z M 1.796875 13.8125 "/>
<path style=" stroke:none;fill-rule:nonzero;fill:rgb(0%,0%,0%);fill-opacity:1;" d="M 30 9.246094 C 30 5.289062 26.792969 2.082031 22.839844 2.082031 C 18.886719 2.082031 15.679688 5.289062 15.679688 9.246094 C 15.679688 12.648438 18.054688 15.488281 21.234375 16.21875 L 20.796875 17.652344 L 19.066406 17.652344 L 19.066406 16.261719 C 19.066406 16.0625 18.90625 15.898438 18.703125 15.898438 L 13.570312 15.898438 C 13.371094 15.898438 13.207031 16.0625 13.207031 16.261719 L 13.207031 17.652344 L 12.519531 17.652344 C 11.792969 18.683594 10.804688 19.515625 9.644531 20.042969 L 9.644531 20.292969 L 12.011719 19.058594 L 18.421875 19.058594 L 18.421875 27.554688 L 16.289062 27.554688 L 16.289062 26.84375 L 9.644531 24.476562 C 9.644531 24.476562 9.644531 25.246094 9.644531 26.195312 C 9.644531 27.148438 10.585938 27.917969 11.746094 27.917969 L 21.554688 27.917969 C 22.714844 27.917969 23.65625 26.976562 23.65625 25.816406 L 23.65625 17.652344 L 22.839844 17.652344 L 22.839844 16.40625 C 26.792969 16.40625 30 13.199219 30 9.246094 Z M 18.339844 17.652344 L 13.933594 17.652344 L 13.933594 16.625 L 18.34375 16.625 L 18.34375 17.652344 Z M 26.417969 14.355469 C 26.28125 14.355469 26.171875 14.246094 26.171875 14.109375 C 26.171875 13.972656 26.285156 13.863281 26.417969 13.863281 C 26.554688 13.863281 26.664062 13.972656 26.664062 14.109375 C 26.667969 14.246094 26.554688 14.355469 26.417969 14.355469 Z M 23.742188 14.601562 L 23.65625 10.128906 L 27.546875 11.707031 C 26.835938 13.203125 25.429688 14.308594 23.742188 14.601562 Z M 28.476562 7.292969 C 28.613281 7.292969 28.722656 7.402344 28.722656 7.539062 C 28.722656 7.675781 28.613281 7.785156 28.476562 7.785156 C 28.339844 7.785156 28.230469 7.675781 28.230469 7.539062 C 28.230469 7.402344 28.339844 7.292969 28.476562 7.292969 Z M 28.050781 9.472656 C 28.050781 9.648438 28.039062 9.824219 28.023438 9.996094 L 24 8.367188 L 26.296875 5.574219 C 27.371094 6.527344 28.050781 7.921875 28.050781 9.472656 Z M 22.523438 2.90625 C 22.660156 2.90625 22.769531 3.015625 22.769531 3.152344 C 22.769531 3.289062 22.660156 3.398438 22.523438 3.398438 C 22.386719 3.398438 22.277344 3.289062 22.277344 3.152344 C 22.277344 3.015625 22.390625 2.90625 22.523438 2.90625 Z M 22.839844 4.261719 C 23.527344 4.261719 24.183594 4.394531 24.78125 4.636719 L 22.511719 7.402344 L 20.265625 4.941406 C 21.027344 4.507812 21.902344 4.261719 22.839844 4.261719 Z M 16.800781 8.03125 C 16.664062 8.03125 16.554688 7.921875 16.554688 7.785156 C 16.554688 7.648438 16.664062 7.539062 16.800781 7.539062 C 16.9375 7.539062 17.046875 7.648438 17.046875 7.785156 C 17.046875 7.921875 16.9375 8.03125 16.800781 8.03125 Z M 17.628906 9.472656 C 17.628906 8.167969 18.109375 6.976562 18.902344 6.0625 L 21.234375 8.625 L 17.664062 10.070312 C 17.640625 9.875 17.628906 9.675781 17.628906 9.472656 Z M 19.429688 14.847656 C 19.296875 14.847656 19.183594 14.738281 19.183594 14.601562 C 19.183594 14.464844 19.296875 14.355469 19.429688 14.355469 C 19.566406 14.355469 19.675781 14.464844 19.675781 14.601562 C 19.675781 14.738281 19.566406 14.847656 19.429688 14.847656 Z M 18.164062 11.769531 L 21.894531 10.257812 L 21.980469 14.609375 C 20.300781 14.332031 18.890625 13.25 18.164062 11.769531 Z M 22.679688 10.144531 C 22.128906 10.144531 21.683594 9.699219 21.683594 9.152344 C 21.683594 8.601562 22.128906 8.15625 22.679688 8.15625 C 23.226562 8.15625 23.671875 8.601562 23.671875 9.152344 C 23.671875 9.699219 23.226562 10.144531 22.679688 10.144531 Z M 22.679688 10.144531 "/>
<path style=" stroke:none;fill-rule:nonzero;fill:rgb(0%,0%,0%);fill-opacity:1;" d="M 18.058594 27.152344 L 18.058594 19.382812 L 12.101562 19.382812 L 9.082031 20.953125 L 9.082031 23.851562 L 16.652344 26.550781 L 16.652344 27.152344 Z M 18.058594 27.152344 "/>
</g>
</svg>
