<?xml version="1.0" encoding="UTF-8"?>
<svg xmlns="http://www.w3.org/2000/svg" xmlns:xlink="http://www.w3.org/1999/xlink" width="30px" height="29px" viewBox="0 0 29 29" version="1.1">
<g id="surface1">
<path style="fill-rule:evenodd;fill:rgb(100%,100%,100%);fill-opacity:1;stroke-width:0.29055;stroke-linecap:butt;stroke-linejoin:miter;stroke:rgb(100%,40%,0%);stroke-opacity:1;stroke-miterlimit:4;" d="M 7.507368 62.192481 C 4.786463 66.566404 5.575526 69.633483 6.541447 72.620552 L 50.824179 103.024647 L 91.923451 85.702314 L 88.739992 83.582029 L 88.032557 80.048219 C 89.161733 78.954739 90.23649 77.874593 90.95753 76.861124 C 91.147993 75.660962 92.059497 74.100752 90.508581 73.767374 L 43.572966 50.790946 L 11.493494 60.952314 L 9.983392 62.365838 Z M 7.507368 62.192481 " transform="matrix(0.287129,0,0,0.292929,-1.276675,-1.714093)"/>
<path style=" stroke:none;fill-rule:evenodd;fill:rgb(0%,0%,0%);fill-opacity:1;" d="M 11.304688 12.875 L 1.699219 15.890625 C 1.699219 15.890625 1.578125 16.207031 1.4375 16.269531 C 1.238281 16.359375 0.785156 16.179688 0.785156 16.179688 C 0.386719 16.367188 0.0898438 17.191406 0.046875 17.949219 C 0 18.710938 0.152344 19.457031 0.398438 19.738281 L 13.101562 28.761719 C 13.292969 28.871094 13.386719 28.839844 13.484375 28.804688 L 25.390625 23.792969 C 25.628906 23.683594 25.640625 23.425781 25.4375 23.148438 L 24.273438 22.324219 C 24.367188 22.753906 24.433594 23.164062 24.386719 23.402344 C 22.0625 24.351562 16.648438 26.589844 13.570312 27.929688 C 13.332031 27.589844 13.304688 27.066406 13.257812 26.605469 C 13.203125 26.09375 13.253906 25.40625 13.453125 25.101562 C 13.648438 24.796875 13.890625 25.097656 14.046875 25.023438 C 14.171875 24.964844 14.363281 24.828125 14.46875 24.667969 C 16.863281 23.851562 22.132812 21.679688 25.347656 20.402344 C 25.578125 20.160156 25.453125 20.007812 25.308594 19.863281 Z M 11.257812 13.484375 L 24.351562 20.152344 L 14.117188 24.140625 C 14.117188 24.140625 13.976562 24.378906 13.851562 24.425781 C 13.742188 24.464844 13.578125 24.3125 13.457031 24.269531 C 13.3125 24.21875 13.066406 24.3125 12.964844 24.480469 C 12.714844 24.875 12.5625 25.359375 12.484375 25.824219 C 12.386719 26.378906 12.464844 26.917969 12.609375 27.410156 L 1.171875 19.378906 C 0.910156 19.199219 0.652344 18.660156 0.6875 18.09375 C 0.722656 17.515625 0.859375 16.921875 1.230469 16.742188 C 1.230469 16.742188 1.648438 16.890625 1.777344 16.851562 C 1.925781 16.804688 2.101562 16.488281 2.101562 16.488281 Z M 2.039062 17.167969 C 1.820312 17.265625 5.53125 19.480469 7.484375 20.667969 C 9.359375 21.816406 13.382812 24.234375 13.503906 24.042969 C 13.621094 23.851562 9.578125 21.574219 7.707031 20.425781 C 5.8125 19.269531 2.261719 17.074219 2.039062 17.167969 Z M 2.039062 17.167969 "/>
<path style=" stroke:none;fill-rule:evenodd;fill:rgb(0%,0%,0%);fill-opacity:1;" d="M 25.074219 20.511719 L 14.480469 24.65625 C 14.398438 24.726562 14.167969 24.988281 14.019531 25.019531 C 13.84375 25.058594 13.660156 24.820312 13.441406 25.089844 C 13.257812 25.621094 13.234375 25.988281 13.296875 26.484375 C 13.375 27.136719 13.414062 27.324219 13.625 27.902344 L 24.371094 23.457031 C 24.515625 22.980469 24.300781 22.515625 24.230469 22.09375 C 24.207031 21.9375 24.210938 21.796875 24.28125 21.621094 C 24.351562 21.445312 24.601562 21.335938 24.867188 21.039062 C 25.023438 20.863281 25.058594 20.6875 25.074219 20.511719 Z M 24.460938 21.070312 C 24.496094 21.277344 24.128906 21.246094 23.949219 21.476562 C 23.910156 21.527344 23.882812 21.582031 23.859375 21.640625 C 23.722656 21.6875 23.195312 21.867188 22.917969 21.972656 C 21.753906 22.414062 19.429688 23.3125 19.460938 23.382812 C 19.488281 23.453125 21.769531 22.472656 22.929688 22.085938 C 23.226562 21.988281 23.6875 21.84375 23.8125 21.800781 C 23.777344 21.960938 23.769531 22.109375 23.78125 22.171875 C 23.835938 22.554688 23.890625 22.824219 23.886719 23.09375 L 13.855469 27.347656 C 13.707031 26.984375 13.605469 26.644531 13.585938 26.277344 C 13.699219 26.230469 16.265625 25.25 17.617188 24.664062 C 18.804688 24.152344 21.273438 23.261719 21.226562 23.191406 C 21.179688 23.117188 18.726562 24 17.542969 24.550781 C 16.273438 25.136719 13.890625 26.03125 13.578125 26.121094 C 13.582031 25.886719 13.613281 25.644531 13.695312 25.378906 C 13.769531 25.386719 14.050781 25.402344 14.128906 25.390625 C 14.296875 25.363281 14.414062 25.210938 14.585938 25.042969 C 14.960938 24.894531 24.460938 21.070312 24.460938 21.070312 Z M 19.476562 24.484375 C 18.222656 25 14.933594 26.402344 14.929688 26.46875 C 14.921875 26.53125 18.28125 25.128906 19.523438 24.613281 C 20.664062 24.140625 23.535156 23.050781 23.324219 23.039062 C 23.109375 23.027344 20.539062 24.046875 19.476562 24.484375 Z M 19.476562 24.484375 "/>
<path style="fill-rule:evenodd;fill:rgb(100%,100%,100%);fill-opacity:1;stroke-width:0.29055;stroke-linecap:butt;stroke-linejoin:miter;stroke:rgb(100%,0%,0%);stroke-opacity:1;stroke-miterlimit:4;" d="M 9.099098 44.870148 L 12.377789 43.99003 L 47.205375 43.723327 L 86.005483 67.406517 L 84.413753 68.286635 L 82.822023 72.980601 C 83.270973 74.247438 83.243764 76.501075 84.318521 76.51441 L 35.886409 88.449351 L 6.895165 54.324755 C 7.316905 51.070983 6.133311 47.283807 9.099098 44.870148 Z M 9.099098 44.870148 " transform="matrix(0.287129,0,0,0.292929,-1.276675,-1.714093)"/>
<path style=" stroke:none;fill-rule:evenodd;fill:rgb(0%,0%,0%);fill-opacity:1;" d="M 12.359375 10.820312 L 2.125 10.921875 C 2.058594 11.019531 1.898438 11.160156 1.824219 11.179688 C 1.742188 11.195312 1.519531 11.015625 1.382812 11.066406 C 0.769531 11.308594 0.707031 12.042969 0.601562 12.453125 C 0.410156 13.1875 0.582031 14.300781 0.796875 14.632812 C 1.121094 15.015625 8.488281 23.917969 8.769531 24.199219 C 9.097656 24.527344 9.394531 24.570312 9.933594 24.425781 C 12.355469 23.78125 19.394531 22.21875 23.84375 20.984375 C 24.105469 20.84375 23.996094 20.613281 23.804688 20.425781 L 22.738281 19.765625 C 22.742188 20.0625 22.785156 20.332031 22.871094 20.613281 C 18.738281 21.585938 13.816406 22.679688 9.621094 23.640625 C 9.257812 23.511719 8.890625 22.925781 8.847656 22.625 C 8.730469 21.78125 8.886719 21.382812 9.042969 21.148438 C 9.203125 20.914062 9.324219 20.773438 9.46875 20.679688 C 9.628906 20.699219 9.863281 20.769531 10.003906 20.714844 C 10.152344 20.65625 10.257812 20.546875 10.367188 20.441406 L 23.667969 18.324219 C 23.875 18.164062 23.742188 17.941406 23.640625 17.847656 Z M 12.238281 11.429688 L 22.644531 17.917969 L 10.050781 19.890625 C 9.910156 19.964844 9.863281 20.128906 9.800781 20.152344 C 9.738281 20.175781 9.539062 20.128906 9.371094 20.113281 C 9.027344 20.214844 8.574219 20.859375 8.464844 21.316406 C 8.214844 22.359375 8.410156 22.898438 8.863281 23.640625 L 1.292969 14.363281 C 1.113281 14.078125 1.007812 13.601562 1.128906 12.828125 C 1.191406 12.445312 1.316406 12.074219 1.511719 11.757812 C 1.632812 11.765625 1.742188 11.855469 1.945312 11.789062 C 2.210938 11.699219 2.207031 11.496094 2.269531 11.472656 Z M 2.128906 12.121094 C 1.988281 12.25 4.492188 14.699219 5.730469 16.011719 C 6.980469 17.339844 9.316406 20.09375 9.503906 19.949219 C 9.6875 19.804688 7.207031 17.121094 5.960938 15.800781 C 4.757812 14.523438 2.269531 11.988281 2.128906 12.121094 Z M 2.128906 12.121094 "/>
<path style=" stroke:none;fill-rule:evenodd;fill:rgb(0%,0%,0%);fill-opacity:1;" d="M 23.308594 18.382812 C 18.953125 19.019531 12.660156 19.988281 10.371094 20.429688 C 10.277344 20.558594 10.125 20.667969 9.929688 20.714844 C 9.855469 20.734375 9.675781 20.699219 9.46875 20.679688 C 8.988281 21 8.78125 21.660156 8.847656 22.265625 C 8.929688 23.046875 9.242188 23.347656 9.652344 23.644531 C 14.0625 22.648438 18.472656 21.828125 22.882812 20.613281 C 22.5625 19.601562 22.863281 19.003906 23.308594 18.382812 Z M 22.371094 18.941406 C 22.207031 19.269531 22.179688 19.488281 22.226562 19.859375 C 22.132812 19.878906 21.085938 20.078125 20.527344 20.1875 C 19.84375 20.324219 18.519531 20.519531 18.519531 20.621094 C 18.515625 20.722656 19.894531 20.492188 20.570312 20.347656 C 21.070312 20.242188 22 20.128906 22.238281 19.945312 C 22.25 20.03125 22.261719 20.113281 22.28125 20.222656 L 9.785156 23.222656 C 9.625 23.121094 9.488281 22.925781 9.386719 22.71875 C 9.601562 22.679688 11.609375 22.28125 12.667969 22.113281 C 13.890625 21.917969 16.320312 21.382812 16.285156 21.292969 C 16.25 21.203125 13.964844 21.804688 12.648438 21.945312 C 11.554688 22.0625 9.503906 22.496094 9.3125 22.539062 C 9.273438 22.425781 9.246094 22.320312 9.238281 22.230469 C 9.207031 21.761719 9.195312 21.441406 9.597656 21.027344 C 9.6875 21.101562 9.878906 21.148438 10.035156 21.113281 C 10.257812 21.0625 10.359375 21.003906 10.5 20.847656 Z M 20.78125 19.675781 C 20.5625 19.636719 17.613281 20.203125 16.089844 20.449219 C 13.996094 20.789062 9.789062 21.351562 9.839844 21.476562 C 9.886719 21.601562 14.085938 20.929688 16.195312 20.574219 C 17.796875 20.304688 21 19.714844 20.78125 19.675781 Z M 20.78125 19.675781 "/>
<path style="fill-rule:evenodd;fill:rgb(100%,100%,100%);fill-opacity:1;stroke-width:0.29055;stroke-linecap:butt;stroke-linejoin:miter;stroke:rgb(100%,40%,0%);stroke-opacity:1;stroke-miterlimit:4;" d="M 46.04899 29.668101 L 8.037945 35.055493 C 6.759119 38.37594 4.718441 41.282999 7.956318 47.08378 L 47.735951 77.301183 L 92.630887 63.966054 L 89.270569 62.099135 C 89.352196 58.618667 90.23649 55.578257 92.10031 51.857756 Z M 46.04899 29.668101 " transform="matrix(0.287129,0,0,0.292929,-1.276675,-1.714093)"/>
<path style=" stroke:none;fill-rule:evenodd;fill:rgb(0%,0%,0%);fill-opacity:1;" d="M 11.957031 6.800781 L 1.125 8.265625 C 0.570312 8.429688 0.253906 9.667969 0.277344 10.417969 C 0.296875 11.003906 0.613281 11.933594 0.972656 12.339844 L 12.503906 21.285156 L 25.871094 17.324219 C 26.039062 17.101562 25.957031 16.980469 25.894531 16.851562 L 24.636719 16.070312 C 24.636719 16.070312 24.664062 16.632812 24.628906 17 C 21.191406 17.917969 15.757812 19.4375 12.542969 20.363281 C 12.347656 20.160156 12.078125 19.375 12.0625 18.875 C 12.035156 18.015625 12.164062 17.472656 12.488281 17.171875 L 25.921875 14.085938 C 26.078125 13.984375 26.097656 13.730469 25.871094 13.507812 Z M 11.917969 7.273438 L 24.683594 13.636719 L 11.910156 16.535156 C 11.460938 17.097656 11.347656 17.710938 11.355469 18.328125 C 11.363281 18.839844 11.503906 19.601562 11.742188 20 L 1.339844 11.816406 C 1.082031 11.578125 0.894531 10.828125 0.894531 10.492188 C 0.890625 9.972656 1.066406 9.464844 1.363281 8.8125 Z M 1.933594 9.1875 C 1.667969 9.308594 6.21875 12.617188 6.21875 12.617188 C 6.21875 12.617188 11.507812 16.546875 11.570312 16.363281 C 11.636719 16.179688 6.59375 12.253906 6.59375 12.253906 C 6.59375 12.253906 2.199219 9.070312 1.933594 9.1875 Z M 1.933594 9.1875 "/>
<path style=" stroke:none;fill-rule:evenodd;fill:rgb(0%,0%,0%);fill-opacity:1;" d="M 25.308594 14.222656 L 24.730469 14.355469 L 12.636719 17.097656 C 12.414062 17.339844 12.042969 17.824219 12.160156 18.878906 C 12.21875 19.417969 12.351562 19.90625 12.675781 20.335938 L 24.632812 17.003906 C 24.679688 16.691406 24.636719 16.0625 24.675781 15.609375 C 24.710938 15.15625 24.859375 14.992188 25.003906 14.742188 Z M 24.367188 14.875 C 24.304688 15.101562 24.214844 15.3125 24.171875 15.546875 C 24.027344 15.539062 23.8125 15.535156 23.683594 15.5625 C 22.945312 15.71875 21.472656 16.136719 21.515625 16.222656 C 21.558594 16.3125 22.894531 15.816406 23.738281 15.761719 C 23.859375 15.753906 24.019531 15.761719 24.144531 15.769531 C 24.132812 15.914062 24.125 16.027344 24.121094 16.140625 C 22.808594 16.476562 21.347656 16.839844 20.035156 17.167969 C 18.351562 17.59375 15.839844 18.148438 15.875 18.289062 C 15.90625 18.433594 18.414062 17.738281 20.085938 17.316406 C 21.394531 16.988281 22.800781 16.675781 24.117188 16.339844 C 24.117188 16.433594 24.121094 16.515625 24.136719 16.582031 L 12.984375 19.671875 C 12.632812 19.527344 12.632812 19.144531 12.59375 18.851562 C 12.535156 18.40625 12.535156 17.894531 12.824219 17.65625 Z M 17.96875 16.867188 C 16.128906 17.328125 12.761719 18.238281 12.792969 18.328125 C 12.824219 18.421875 16.179688 17.496094 17.996094 16.992188 C 18.957031 16.726562 20.929688 16.230469 20.753906 16.183594 C 20.578125 16.136719 18.871094 16.640625 17.96875 16.867188 Z M 17.96875 16.867188 "/>
<path style="fill-rule:evenodd;fill:rgb(100%,100%,100%);fill-opacity:1;stroke-width:0.29055;stroke-linecap:butt;stroke-linejoin:miter;stroke:rgb(100%,40%,0%);stroke-opacity:1;stroke-miterlimit:4;" d="M 51.966959 18.533268 L 15.289157 28.961339 C 15.289157 28.961339 14.853812 30.374863 14.323236 30.281517 C 13.792659 30.201506 11.575122 30.201506 11.575122 30.201506 C 9.61607 32.70851 9.575256 35.082163 11.139777 37.362471 L 63.462783 62.992589 L 102.534981 48.844017 L 100.766393 47.350482 L 102.616609 44.603446 L 102.71184 40.269529 Z M 51.966959 18.533268 " transform="matrix(0.287129,0,0,0.292929,-1.276675,-1.714093)"/>
<path style=" stroke:none;fill-rule:evenodd;fill:rgb(0%,0%,0%);fill-opacity:1;" d="M 13.65625 3.523438 C 10.113281 4.53125 6.109375 5.609375 2.886719 6.476562 C 2.824219 6.519531 2.800781 6.675781 2.664062 6.820312 C 2.605469 6.882812 2.355469 6.75 2.265625 6.761719 C 2.125 6.777344 1.964844 6.898438 1.851562 6.996094 C 1.699219 7.136719 1.652344 7.269531 1.585938 7.460938 C 1.515625 7.660156 1.515625 7.882812 1.5 8.128906 C 1.46875 8.625 1.558594 9.203125 1.761719 9.472656 C 6.734375 11.984375 12.058594 14.777344 16.816406 17.140625 C 16.917969 17.21875 17.140625 17.230469 17.269531 17.210938 C 17.394531 17.1875 17.503906 17.144531 17.542969 17.058594 C 17.570312 17.003906 17.644531 16.898438 17.726562 16.839844 C 17.8125 16.785156 17.890625 16.929688 18.082031 16.925781 L 28.476562 12.867188 C 28.59375 12.820312 28.671875 12.648438 28.480469 12.492188 L 27.816406 12.058594 L 27.484375 12.566406 C 24.394531 13.648438 20.910156 14.953125 17.644531 16.171875 C 17.394531 16.117188 17.105469 15.582031 17.089844 15.332031 C 17.074219 15.046875 17.214844 14.722656 17.296875 14.585938 C 20.921875 13.207031 24.871094 11.839844 28.792969 10.421875 C 28.976562 10.316406 28.921875 10.148438 28.761719 9.953125 Z M 13.636719 3.992188 L 27.738281 10.265625 L 17.21875 13.964844 C 16.980469 14.058594 16.832031 14.257812 16.703125 14.445312 C 16.539062 14.691406 16.425781 15.058594 16.453125 15.5 C 16.476562 15.90625 16.574219 16.179688 16.710938 16.398438 L 2.207031 9.070312 C 2.015625 8.78125 2.023438 8.519531 2.042969 8.175781 C 2.058594 7.90625 2.128906 7.667969 2.285156 7.46875 C 2.304688 7.441406 2.511719 7.28125 2.726562 7.40625 C 2.816406 7.457031 2.902344 7.460938 3.054688 7.347656 C 3.238281 7.210938 3.175781 7.085938 3.304688 6.980469 Z M 3.210938 7.332031 C 3.175781 7.324219 3.152344 7.328125 3.148438 7.335938 C 3.050781 7.496094 7.289062 9.550781 9.386719 10.597656 C 11.710938 11.753906 16.335938 14.058594 16.417969 13.925781 C 16.5 13.792969 11.8125 11.472656 9.476562 10.316406 C 7.519531 9.34375 3.753906 7.4375 3.210938 7.332031 Z M 3.210938 7.332031 "/>
<path style=" stroke:none;fill-rule:evenodd;fill:rgb(0%,0%,0%);fill-opacity:1;" d="M 28.429688 10.558594 C 24.59375 11.839844 19.28125 13.867188 17.332031 14.550781 C 17.113281 14.800781 17.128906 15.113281 17.199219 15.402344 C 17.273438 15.695312 17.507812 16.097656 17.679688 16.167969 L 27.574219 12.550781 C 27.648438 12.445312 27.964844 12.144531 28.175781 11.8125 C 28.28125 11.644531 28.363281 11.371094 28.40625 11.191406 C 28.449219 11.011719 28.515625 10.6875 28.429688 10.558594 Z M 28.0625 10.929688 C 28.132812 11.167969 27.972656 11.355469 27.863281 11.535156 C 27.6875 11.828125 27.457031 12.121094 27.300781 12.328125 L 17.808594 15.800781 C 17.65625 15.71875 17.53125 15.542969 17.480469 15.332031 C 17.425781 15.113281 17.441406 14.882812 17.503906 14.78125 Z M 23.027344 12.996094 C 21.378906 13.609375 18.058594 14.703125 18.105469 14.886719 C 18.15625 15.066406 21.453125 13.742188 23.117188 13.121094 C 24.683594 12.535156 27.660156 11.421875 27.601562 11.347656 C 27.542969 11.273438 24.511719 12.445312 23.027344 12.996094 Z M 27.304688 12 C 27.269531 11.953125 26.074219 12.378906 25.484375 12.609375 C 24.929688 12.824219 17.765625 15.4375 17.800781 15.527344 C 17.832031 15.617188 25.019531 12.949219 25.578125 12.734375 C 26.164062 12.511719 27.339844 12.042969 27.304688 12 Z M 27.304688 12 "/>
<path style="fill-rule:evenodd;fill:rgb(100%,100%,100%);fill-opacity:1;stroke-width:0.29055;stroke-linecap:butt;stroke-linejoin:miter;stroke:rgb(100%,40%,0%);stroke-opacity:1;stroke-miterlimit:4;" d="M 54.973559 6.424971 L 13.969518 14.546064 C 10.962918 17.453122 9.901765 21.080278 11.847212 25.867589 L 53.477061 53.617993 L 101.827546 41.41635 L 97.582934 38.415946 L 97.229216 33.815326 L 101.120111 28.52128 Z M 54.973559 6.424971 " transform="matrix(0.287129,0,0,0.292929,-1.276675,-1.714093)"/>
<path style=" stroke:none;fill-rule:evenodd;fill:rgb(0%,0%,0%);fill-opacity:1;" d="M 14.558594 0 L 2.449219 2.402344 C 2.449219 2.402344 1.652344 3.324219 1.664062 4.273438 C 1.675781 5.195312 1.785156 5.742188 2.042969 6.007812 C 2.417969 6.277344 14.074219 14.320312 14.074219 14.320312 L 28.121094 10.550781 C 28.265625 10.367188 28.160156 10.230469 28.054688 10.089844 L 26.976562 9.597656 L 27.070312 10.097656 C 22.933594 11.21875 18.5625 12.375 14.359375 13.441406 C 14.304688 13.191406 14.105469 12.496094 14.085938 12.253906 C 14.015625 11.328125 14.617188 10.480469 14.699219 10.371094 L 27.976562 7.160156 C 28.121094 6.960938 28.082031 6.699219 27.925781 6.542969 Z M 14.523438 0.429688 L 27.160156 6.695312 L 14.429688 9.945312 C 14.429688 9.945312 13.46875 10.925781 13.554688 12.234375 C 13.585938 12.714844 13.832031 13.390625 13.878906 13.570312 L 2.523438 5.847656 C 2.292969 5.601562 2.21875 5.101562 2.207031 4.242188 C 2.199219 3.683594 2.628906 2.933594 2.695312 2.875 Z M 2.90625 2.949219 C 2.839844 3.089844 6.511719 5.3125 8.351562 6.429688 C 10.300781 7.613281 14.09375 10.003906 14.269531 9.855469 C 14.445312 9.703125 10.480469 7.382812 8.550781 6.210938 C 6.695312 5.082031 2.972656 2.8125 2.90625 2.949219 Z M 2.90625 2.949219 "/>
<path style=" stroke:none;fill-rule:evenodd;fill:rgb(0%,0%,0%);fill-opacity:1;" d="M 27.714844 7.132812 C 27.675781 7.136719 27.632812 7.15625 27.609375 7.164062 L 14.800781 10.34375 C 14.503906 10.847656 14.207031 11.34375 14.148438 11.886719 C 14.097656 12.390625 14.347656 13.058594 14.433594 13.507812 L 27.074219 10.121094 C 26.976562 9.621094 26.914062 9.164062 26.90625 8.757812 C 26.902344 8.261719 27.121094 7.898438 27.339844 7.644531 C 27.449219 7.515625 27.535156 7.488281 27.617188 7.425781 C 27.691406 7.371094 27.773438 7.328125 27.804688 7.277344 C 27.816406 7.253906 27.8125 7.238281 27.800781 7.191406 C 27.792969 7.136719 27.753906 7.128906 27.714844 7.132812 Z M 26.601562 7.773438 C 26.40625 8.015625 26.355469 8.195312 26.34375 8.382812 C 25.496094 8.507812 22.792969 9.105469 21.324219 9.449219 C 19.617188 9.847656 16.210938 10.699219 16.234375 10.789062 C 16.261719 10.878906 19.683594 10.0625 21.398438 9.660156 C 22.863281 9.320312 25.5 8.722656 26.339844 8.46875 C 26.339844 8.582031 26.34375 8.699219 26.347656 8.84375 C 26.347656 9.464844 26.433594 9.679688 26.460938 9.789062 L 14.671875 12.796875 C 14.628906 12.6875 14.605469 12.597656 14.585938 12.511719 C 14.839844 12.511719 15.605469 12.363281 16.015625 12.261719 C 16.546875 12.128906 18.3125 11.621094 18.304688 11.546875 C 18.296875 11.472656 16.492188 11.957031 15.945312 12.09375 C 15.542969 12.195312 14.804688 12.34375 14.574219 12.441406 C 14.546875 12.273438 14.550781 12.121094 14.566406 11.875 C 14.601562 11.292969 14.863281 10.941406 14.90625 10.875 Z M 19.570312 10.613281 C 18.082031 10.945312 15.132812 11.554688 15.136719 11.6875 C 15.144531 11.816406 18.144531 11.164062 19.632812 10.828125 C 21.285156 10.457031 24.589844 9.664062 24.355469 9.621094 C 24.121094 9.578125 21.121094 10.265625 19.570312 10.613281 Z M 19.570312 10.613281 "/>
</g>
</svg>
